<svg id="visual" viewBox="0 0 900 450" width="900" height="450" xmlns="http://www.w3.org/2000/svg" xmlns:xlink="http://www.w3.org/1999/xlink" version="1.1"><path d="M0 331L4.8 333C9.7 335 19.3 339 29 310.3C38.7 281.7 48.3 220.3 58 186.3C67.7 152.3 77.3 145.7 87 169C96.7 192.3 106.3 245.7 116 281.3C125.7 317 135.3 335 145 304.5C154.7 274 164.3 195 174 166C183.7 137 193.3 158 203 173.7C212.7 189.3 222.3 199.7 232 216.8C241.7 234 251.3 258 261 250.7C270.7 243.3 280.3 204.7 290 193.7C299.7 182.7 309.3 199.3 319 196.8C328.7 194.3 338.3 172.7 348 179.3C357.7 186 367.3 221 377 234.7C386.7 248.3 396.3 240.7 406 254.3C415.7 268 425.3 303 435.2 294.5C445 286 455 234 464.8 236.2C474.7 238.3 484.3 294.7 494 283.2C503.7 271.7 513.3 192.3 523 188.8C532.7 185.3 542.3 257.7 552 254.8C561.7 252 571.3 174 581 141.3C590.7 108.7 600.3 121.3 610 130.7C619.7 140 629.3 146 639 180C648.7 214 658.3 276 668 288C677.7 300 687.3 262 697 247.3C706.7 232.7 716.3 241.3 726 227.3C735.7 213.3 745.3 176.7 755 192.7C764.7 208.7 774.3 277.3 784 300.3C793.7 323.3 803.3 300.7 813 289.5C822.7 278.3 832.3 278.7 842 254.2C851.7 229.7 861.3 180.3 871 191C880.7 201.7 890.3 272.3 895.2 307.7L900 343" fill="none" stroke-linecap="round" stroke-linejoin="miter" stroke="#ffffff" stroke-width="26"></path></svg>