<svg id="visual" viewBox="0 0 900 450" width="900" height="450" xmlns="http://www.w3.org/2000/svg" xmlns:xlink="http://www.w3.org/1999/xlink" version="1.1"><path d="M0 331L4.8 333C9.7 335 19.3 339 29 310.3C38.7 281.7 48.3 220.3 58 186.3C67.7 152.3 77.3 145.7 87 169C96.7 192.3 106.3 245.7 116 281.3C125.7 317 135.3 335 145 304.5C154.7 274 164.3 195 174 166C183.7 137 193.3 158 203 173.7C212.7 189.3 222.3 199.7 232 216.8C241.7 234 251.3 258 261 250.7C270.7 243.3 280.3 204.7 290 193.7C299.7 182.7 309.3 199.3 319 196.8C328.7 194.3 338.3 172.7 348 179.3C357.7 186 367.3 221 377 234.7C386.7 248.3 396.3 240.7 406 254.3C415.7 268 425.3 303 435.2 294.5C445 286 455 234 464.8 236.2C474.7 238.3 484.3 294.7 494 283.2C503.7 271.7 513.3 192.3 523 188.8C532.7 185.3 542.3 257.7 552 254.8C561.7 252 571.3 174 581 141.3C590.7 108.7 600.3 121.3 610 130.7C619.7 140 629.3 146 639 180C648.7 214 658.3 276 668 288C677.7 300 687.3 262 697 247.3C706.7 232.7 716.3 241.3 726 227.3C735.7 213.3 745.3 176.7 755 192.7C764.7 208.7 774.3 277.3 784 300.3C793.7 323.3 803.3 300.7 813 289.5C822.7 278.3 832.3 278.7 842 254.2C851.7 229.7 861.3 180.3 871 191C880.7 201.7 890.3 272.3 895.2 307.7L900 343L900 0L895.2 0C890.3 0 880.7 0 871 0C861.3 0 851.7 0 842 0C832.3 0 822.7 0 813 0C803.3 0 793.7 0 784 0C774.3 0 764.7 0 755 0C745.3 0 735.7 0 726 0C716.3 0 706.7 0 697 0C687.3 0 677.7 0 668 0C658.3 0 648.7 0 639 0C629.3 0 619.7 0 610 0C600.3 0 590.7 0 581 0C571.3 0 561.7 0 552 0C542.3 0 532.7 0 523 0C513.3 0 503.7 0 494 0C484.3 0 474.7 0 464.8 0C455 0 445 0 435.2 0C425.3 0 415.7 0 406 0C396.3 0 386.7 0 377 0C367.3 0 357.7 0 348 0C338.3 0 328.7 0 319 0C309.3 0 299.7 0 290 0C280.3 0 270.7 0 261 0C251.3 0 241.7 0 232 0C222.3 0 212.7 0 203 0C193.3 0 183.7 0 174 0C164.3 0 154.7 0 145 0C135.3 0 125.7 0 116 0C106.3 0 96.7 0 87 0C77.3 0 67.7 0 58 0C48.3 0 38.7 0 29 0C19.3 0 9.7 0 4.8 0L0 0Z" fill="#ffffff" stroke-linecap="round" stroke-linejoin="miter"></path></svg>